<?xml version="1.0" encoding="UTF-8"?>
<svg xmlns="http://www.w3.org/2000/svg" viewBox="0 0 1576.54 806.04">
  <defs>
    <style>
      .cls-1 {
        font-family: ClarendonURWExtWid-Bol, 'Clarendon URW Extra Wide';
        font-size: 450px;
      }

      .cls-2 {
        letter-spacing: 0em;
      }

      .cls-3 {
        font-family: ClarendonTextPro, 'Clarendon Text Pro';
        font-size: 200px;
      }
    </style>
  </defs>
  <g id="Layer_1" data-name="Layer 1">
    <text class="cls-3" transform="translate(0 169.3)"><tspan x="0" y="0">the</tspan></text>
    <text class="cls-1" transform="translate(0 528.05)"><tspan class="cls-2" x="0" y="0">B</tspan><tspan x="360" y="0">OLD</tspan></text>
    <text class="cls-3" transform="translate(995.41 736.04)"><tspan x="0" y="0">farm</tspan></text>
  </g>
  <g id="Layer_2" data-name="Layer 2">
    <path d="M632.26,384.27c-.11-.46-.33-.88-.64-1.24-.71-.61-1.61-.95-2.54-.99-15.31-2.14-30.92.13-44.98,6.56-5.83,2.34-10.93,6.2-14.77,11.17-6.36,9.22-4.94,21.73-1.35,32.34,7.12-10.68,16.92-19.3,28.42-25.01,1.07-.52,2.36-.23,3.1.7.88,1.08.73,2.67-.35,3.55-.15.12-.31.22-.48.31-20.77,9.92-34.3,31.75-39.48,54.33-2.11-13.38-5.95-26.44-11.43-38.83-5.13-11.38-13.33-21.1-23.67-28.08-1.2-.78-1.54-2.38-.76-3.58.12-.19.27-.36.43-.51.89-.83,2.24-.93,3.25-.25,10.96,7.58,19.66,17.98,25.18,30.1,7.92-12.13,7.24-27.96-1.68-39.37-7.2-8.82-18.49-13.33-29.7-15.35-7.49-1.35-15.11-1.75-22.69-1.19-1.91.14-3.82.32-5.71.61-1.14.17-1.94.31-2.38,1.46-.5,1.75-.77,3.56-.8,5.38-.18,1.88-.27,3.77-.27,5.66.08,7.08.94,14.12,2.59,21.01,2.74,12.27,7.9,25.4,19.15,31.02,10.32,5.15,22.85,2.43,33.43-2.16,8.43,20.54,12.47,42.61,11.87,64.81-.06,1.98.31,4.58,2.26,4.96,2.52.48,3.44-3.18,3.32-5.74-.87-18.77,3.27-37.42,11.99-54.06,12.99,11.69,32.87,11.13,45.19-1.26,5.85-6.43,9.86-14.31,11.62-22.82,2.63-10.55,3.34-21.49,2.11-32.3-.04-.41-.11-.82-.21-1.22Z"/>
  </g>
</svg>