<?xml version="1.0" encoding="UTF-8"?>
<svg id="Layer_5" data-name="Layer 5" xmlns="http://www.w3.org/2000/svg" viewBox="0 0 128 128">
  <path d="M59.16,6.37c28.39-1.96,54.27,13.23,61.95,41.26,9.79,35.7-12.53,72.39-50.44,75.01C-13.05,128.42-16.95,11.61,59.16,6.37ZM66.58,100.65c15.04-.56,25.18-10.1,28.32-24.49,4.71-21.57-2.93-46.36-28.11-47.93-17.4-1.08-30.25,8.24-33.71,25.34-4.26,21.02,3.28,45.78,27.9,47.08v-13.15c0-.63-1-3.48-1.35-4.26-1.74-3.87-4.99-5.4-8.79-6.73-.68.37,0,.75.22,1.07,2.31,3.39,3.75,6.3,4.66,10.37-.23,1.33-4.39.03-5.29-.26-6-1.93-11.02-7.93-11.02-14.42v-6.9c1.35-1.28,4.44-.86,6.25-.64,6.61.81,12.4,4.04,16.17,9.48,2.49-12.31,15.6-17.88,27.17-16.6,1.95,1.15.03,10.61-.65,12.73-2.53,7.86-8.91,10.86-16.6,12.07.36-5.04,3.21-9.81,6.46-13.58-2.18-.03-4.93,1.74-6.69,3.23-1.61,1.37-4.95,5.5-4.95,7.55v20.05Z"/>
</svg>